<?xml version="1.0" standalone="no"?>
<!DOCTYPE svg PUBLIC "-//W3C//DTD SVG 20010904//EN"
 "http://www.w3.org/TR/2001/REC-SVG-20010904/DTD/svg10.dtd">
<svg version="1.0" xmlns="http://www.w3.org/2000/svg"
 width="1800.000000pt" height="1800.000000pt" viewBox="0 0 1800.000000 1800.000000"
 preserveAspectRatio="xMidYMid meet">
<metadata>
Created by potrace 1.14, written by Peter Selinger 2001-2017
</metadata>
<g transform="translate(0.000000,1800.000000) scale(0.100000,-0.100000)"
fill="#000000" stroke="none">
<path d="M8390 17840 c-80 -5 -176 -13 -215 -19 -38 -5 -104 -13 -145 -16 -86
-7 -341 -41 -415 -55 -27 -5 -93 -16 -145 -25 -307 -50 -700 -143 -1015 -239
-229 -70 -271 -83 -400 -131 -55 -20 -112 -40 -126 -45 -35 -11 -206 -77 -246
-96 -17 -7 -35 -14 -40 -14 -4 -1 -26 -9 -48 -20 -22 -11 -43 -19 -47 -20 -3
0 -40 -16 -81 -35 -41 -19 -77 -35 -80 -35 -8 0 -213 -98 -367 -174 -458 -229
-930 -522 -1345 -835 -377 -284 -636 -512 -991 -873 -214 -216 -270 -277 -400
-428 -471 -550 -885 -1171 -1200 -1800 -76 -154 -174 -359 -174 -367 0 -3 -16
-39 -35 -80 -19 -41 -35 -78 -35 -81 -1 -4 -9 -25 -20 -47 -11 -22 -19 -44
-20 -48 0 -5 -7 -23 -14 -40 -19 -40 -85 -211 -96 -246 -5 -14 -27 -78 -50
-141 -53 -148 -59 -166 -126 -385 -96 -315 -189 -708 -239 -1015 -9 -52 -20
-117 -25 -145 -15 -79 -41 -268 -56 -420 -8 -77 -20 -189 -26 -250 -8 -73 -12
-315 -12 -715 0 -400 4 -642 12 -715 6 -60 18 -173 26 -250 15 -152 41 -341
56 -420 5 -27 16 -93 25 -145 50 -307 143 -700 239 -1015 67 -219 73 -237 126
-385 23 -63 45 -127 50 -141 11 -35 77 -206 96 -246 7 -17 14 -35 14 -40 1 -4
9 -26 20 -48 11 -22 19 -43 20 -47 0 -3 16 -40 35 -81 19 -41 35 -77 35 -80 0
-8 98 -213 174 -367 229 -458 522 -929 835 -1345 169 -224 361 -457 515 -625
108 -118 439 -450 567 -568 589 -547 1296 -1036 2019 -1398 154 -76 359 -174
367 -174 3 0 39 -16 80 -35 41 -19 78 -35 81 -35 4 -1 25 -9 47 -20 22 -11 44
-19 48 -20 5 0 23 -7 40 -14 40 -19 211 -85 246 -96 14 -5 71 -25 126 -45 129
-48 171 -61 400 -131 315 -96 708 -189 1015 -239 52 -9 118 -20 145 -25 74
-14 329 -48 415 -55 41 -3 107 -10 145 -16 156 -22 393 -31 825 -31 432 0 669
9 825 31 39 6 104 13 145 16 86 7 341 41 415 55 28 5 93 16 145 25 307 50 700
143 1015 239 229 70 271 83 400 131 55 20 112 40 126 45 35 11 206 77 246 96
17 7 35 14 40 14 4 1 26 9 48 20 22 11 43 19 47 20 3 0 40 16 81 35 41 19 77
35 80 35 8 0 213 98 367 174 458 229 930 522 1345 835 377 284 636 512 991
873 214 216 270 277 400 428 471 550 885 1171 1200 1800 76 154 174 359 174
367 0 3 16 39 35 80 19 41 35 78 35 81 1 4 9 25 20 47 11 22 19 44 20 48 0 5
7 23 14 40 19 40 85 211 96 246 5 14 27 78 50 141 53 148 59 166 126 385 96
315 189 708 239 1015 9 52 20 118 25 145 14 74 48 329 55 415 3 41 10 107 16
145 22 156 31 393 31 825 0 432 -9 669 -31 825 -6 39 -13 104 -16 145 -7 86
-41 341 -55 415 -5 28 -16 93 -25 145 -50 307 -143 700 -239 1015 -67 219 -73
237 -126 385 -23 63 -45 127 -50 141 -11 35 -77 206 -96 246 -7 17 -14 35 -14
40 -1 4 -9 26 -20 48 -11 22 -19 43 -20 47 0 3 -16 40 -35 81 -19 41 -35 77
-35 80 0 8 -98 213 -174 367 -229 458 -522 929 -835 1345 -169 224 -361 457
-515 625 -108 118 -439 450 -567 568 -589 547 -1296 1036 -2019 1398 -154 76
-359 174 -367 174 -3 0 -39 16 -80 35 -41 19 -78 35 -81 35 -4 1 -25 9 -47 20
-22 11 -44 19 -48 20 -5 0 -23 7 -40 14 -40 19 -211 85 -246 96 -14 5 -71 25
-126 45 -129 48 -171 61 -400 131 -315 96 -708 189 -1015 239 -52 9 -117 20
-145 25 -68 13 -325 47 -460 61 -60 6 -146 15 -190 20 -111 12 -1167 19 -1345
9z m-1940 -4546 c570 -66 1064 -263 1456 -580 170 -138 410 -406 501 -561 l25
-43 -44 -48 c-23 -27 -277 -304 -563 -616 l-520 -568 -35 43 c-267 328 -574
516 -957 589 -566 106 -1099 -37 -1583 -427 -292 -235 -585 -621 -766 -1009
-235 -502 -356 -1030 -371 -1619 -32 -1244 410 -1904 1352 -2015 135 -16 382
-17 479 -1 205 33 509 152 521 204 21 89 187 834 236 1057 33 151 62 283 65
293 5 16 -29 17 -611 17 l-617 0 6 28 c6 28 59 311 206 1112 50 267 92 495 95
508 l5 22 1510 0 c1401 0 1510 -1 1510 -17 0 -9 -45 -248 -100 -532 -55 -284
-165 -856 -244 -1271 -80 -415 -170 -881 -200 -1035 -30 -154 -96 -498 -146
-765 -51 -267 -98 -495 -106 -506 -34 -56 -387 -276 -639 -399 -545 -267
-1110 -419 -1725 -466 -199 -15 -658 -6 -840 16 -1120 137 -1933 652 -2420
1535 -232 420 -380 962 -431 1576 -16 195 -6 831 15 1024 82 728 243 1306 525
1885 116 238 190 369 318 565 307 466 684 867 1120 1187 761 561 1691 857
2633 837 113 -2 266 -11 340 -20z m4774 -196 c3 -35 8 -128 11 -208 3 -80 36
-953 74 -1940 38 -987 72 -1887 76 -2000 3 -113 8 -263 10 -335 8 -211 24
-973 31 -1497 l7 -488 22 0 c16 0 26 10 37 38 15 36 578 1387 855 2052 135
323 429 1009 663 1545 67 154 215 496 330 760 115 264 270 622 345 795 76 173
217 500 315 725 98 226 197 455 222 510 l44 100 1132 3 1133 2 -15 -22 c-7
-13 -110 -212 -229 -443 -118 -231 -418 -816 -667 -1300 -249 -484 -501 -974
-560 -1090 -59 -115 -184 -358 -278 -540 -93 -181 -220 -429 -282 -550 -62
-121 -148 -287 -190 -370 -43 -82 -163 -316 -268 -520 -104 -203 -313 -611
-464 -905 -152 -294 -490 -953 -753 -1465 -262 -511 -500 -974 -529 -1027
l-51 -98 -1242 0 -1242 0 -5 52 c-7 59 -17 186 -76 898 -22 267 -42 508 -45
535 -3 28 -55 651 -115 1385 -61 734 -162 1956 -225 2715 -153 1827 -225 2695
-225 2723 l0 22 1074 0 1074 0 6 -62z"/>
</g>
</svg>
